<?xml version="1.0" encoding="UTF-8"?>
<svg width="2032px" height="612px" viewBox="0 0 2032 612" version="1.1" xmlns="http://www.w3.org/2000/svg" xmlns:xlink="http://www.w3.org/1999/xlink">
	<!-- Generator: Sketch 61.2 (89653) - https://sketch.com -->
	<title>SVG PATHOM 2</title>
	<desc>Created with Sketch.</desc>
	<defs>
		<linearGradient x1="10.7025797%" y1="79.5497061%" x2="77.6793126%" y2="18.8426785%" id="linearGradient-1">
			<stop stop-color="#EC1C6F" offset="0.49%"></stop>
			<stop stop-color="#F16232" offset="100%"></stop>
		</linearGradient>
		<linearGradient x1="9.75314137%" y1="81.8747479%" x2="86.1548654%" y2="21.5245561%" id="linearGradient-2">
			<stop stop-color="#EC1C6F" offset="0.49%"></stop>
			<stop stop-color="#F16232" offset="100%"></stop>
		</linearGradient>
	</defs>
	<g id="Page-1" stroke="none" stroke-width="1" fill="none" fill-rule="evenodd">
		<g id="SVG-PATHOM-2" fill-rule="nonzero">
			<path d="M763.24,255.122 C763.24,293.213 735.626,316.238 690.112,316.238 L642.043,316.238 L642.043,372.744 L623.118,372.744 L623.118,193.754 L690.112,193.754 C735.626,193.754 763.24,216.773 763.24,255.122 Z M744.327,255.122 C744.327,226.487 725.402,210.121 689.602,210.121 L642.042,210.121 L642.042,299.619 L689.602,299.619 C725.402,299.618 744.327,283.246 744.327,255.122 Z M968.808,324.934 L869.096,324.934 L847.605,372.745 L827.921,372.745 L909.742,193.755 L928.416,193.755 L1010.237,372.745 L990.299,372.745 L968.808,324.934 Z M961.908,309.585 L918.946,213.446 L875.992,309.585 L961.908,309.585 Z M1127.074,210.121 L1064.181,210.121 L1064.181,193.754 L1208.907,193.754 L1208.907,210.121 L1146.002,210.121 L1146.002,372.745 L1127.074,372.745 L1127.074,210.121 Z M1450.028,193.754 L1450.028,372.744 L1431.362,372.744 L1431.362,290.151 L1319.358,290.151 L1319.358,372.744 L1300.442,372.744 L1300.442,193.754 L1319.358,193.754 L1319.358,273.526 L1431.362,273.526 L1431.362,193.754 L1450.028,193.754 L1450.028,193.754 Z M1553.826,283.246 C1553.826,231.091 1593.709,192.224 1647.92,192.224 C1701.619,192.224 1741.765,230.838 1741.765,283.246 C1741.765,335.672 1701.619,374.281 1647.92,374.281 C1593.709,374.281 1553.826,335.413 1553.826,283.246 Z M1722.828,283.246 C1722.828,240.546 1690.872,209.096 1647.92,209.096 C1604.69,209.096 1572.492,240.546 1572.492,283.246 C1572.492,325.954 1604.689,357.409 1647.92,357.409 C1690.872,357.409 1722.828,325.953 1722.828,283.246 Z M2031.455,193.754 L2031.455,372.744 L2013.292,372.744 L2013.292,229.56 L1942.977,350.002 L1934.034,350.002 L1863.728,230.319 L1863.728,372.744 L1845.561,372.744 L1845.561,193.754 L1861.155,193.754 L1938.89,326.47 L2015.854,193.754 L2031.455,193.754 L2031.455,193.754 Z" id="Shape" fill="#FFFFFF"></path>
			<g id="Group">
				<path d="M453.415,363.996 L453.415,173.808 C464.598,170.718 472.814,160.468 472.814,148.293 C472.814,133.674 460.957,121.812 446.336,121.812 C439.247,121.812 432.822,124.603 428.07,129.136 L262.32,33.439 C262.868,31.326 263.153,29.1 263.153,26.816 C263.153,12.186 251.299,0.335 236.679,0.335 C222.052,0.335 210.198,12.186 210.198,26.816 C210.198,29.1 210.49,31.326 211.034,33.439 L45.284,129.136 C40.534,124.603 34.107,121.812 27.025,121.812 C12.401,121.812 0.544,133.675 0.544,148.293 C0.544,160.467 8.757,170.705 19.94,173.808 L19.94,269.423 C8.757,272.519 0.544,282.77 0.544,294.932 C0.544,309.568 12.398,321.412 27.025,321.412 C41.646,321.412 53.503,309.568 53.503,294.932 C53.503,282.769 45.287,272.518 34.107,269.423 L34.107,173.814 C45.287,170.718 53.503,160.468 53.503,148.293 C53.503,145.879 53.17,143.523 52.558,141.293 L218.125,45.696 C222.903,50.388 229.449,53.297 236.679,53.297 C243.905,53.297 250.452,50.388 255.23,45.696 L420.797,141.293 C420.19,143.524 419.855,145.879 419.855,148.293 C419.855,160.467 428.07,170.717 439.247,173.814 L439.247,363.997 C428.07,367.093 419.855,377.336 419.855,389.506 C419.855,391.937 420.19,394.281 420.797,396.511 L255.23,492.102 C250.452,487.412 243.905,484.514 236.679,484.514 C229.449,484.514 222.903,487.411 218.125,492.102 L116.385,433.353 L102.22,425.188 L52.667,396.57 C53.212,394.458 53.503,392.237 53.503,389.949 C53.503,375.324 41.646,363.467 27.025,363.467 C12.398,363.467 0.544,375.324 0.544,389.949 C0.544,402.117 8.757,412.361 19.94,415.457 L19.94,475.967 L19.94,484.515 L19.94,559.677 C8.757,562.775 0.544,573.018 0.544,585.194 C0.544,599.811 12.401,611.669 27.025,611.669 C41.649,611.669 53.503,599.812 53.503,585.194 C53.503,583.927 53.406,582.685 53.234,581.472 L92.12,559.025 C96.745,562.969 102.741,565.365 109.302,565.365 C123.926,565.365 135.78,553.509 135.78,538.885 C135.78,526.716 127.564,516.472 116.384,513.376 L116.384,469.434 L116.384,462.297 L102.219,454.12 L102.219,466.101 L102.219,469.433 L102.219,513.375 C91.036,516.471 82.823,526.709 82.823,538.884 C82.823,541.81 83.302,544.624 84.177,547.25 L47.514,568.426 C44.097,564.257 39.44,561.155 34.105,559.677 L34.105,484.515 L34.105,472.705 L34.105,415.457 C38.485,414.244 42.415,411.932 45.57,408.828 L102.217,441.543 L116.382,449.716 L211.031,504.366 C210.487,506.48 210.195,508.699 210.195,510.995 C210.195,525.62 222.049,537.471 236.676,537.471 C251.296,537.471 263.15,525.62 263.15,510.995 C263.15,508.706 262.865,506.48 262.317,504.366 L428.067,408.669 C432.819,413.202 439.244,415.987 446.333,415.987 C460.954,415.987 472.814,404.13 472.814,389.507 C472.814,377.335 464.598,367.092 453.415,363.996 Z" id="Path" fill="url(#linearGradient-1)"></path>
				<path d="M82.825,342.442 C82.825,354.61 91.038,364.859 102.221,367.957 L102.221,412.601 L116.386,420.79 L116.386,367.957 C120.769,366.745 124.699,364.425 127.854,361.334 L211.035,409.351 C210.491,411.482 210.199,413.696 210.199,415.986 C210.199,430.609 222.053,442.462 236.68,442.462 C251.3,442.462 263.154,430.609 263.154,415.986 C263.154,413.696 262.869,411.482 262.321,409.357 L345.505,361.335 C350.283,366.021 356.833,368.924 364.056,368.924 C378.68,368.924 390.531,357.061 390.531,342.444 C390.531,330.274 382.318,320.031 371.138,316.934 L371.138,221.449 C382.318,218.352 390.531,208.109 390.531,195.94 C390.531,181.316 378.68,169.459 364.056,169.459 C357.018,169.459 350.63,172.214 345.885,176.688 L262.321,128.443 C262.869,126.323 263.154,124.109 263.154,121.813 C263.154,107.195 251.3,95.338 236.68,95.338 C222.053,95.338 210.199,107.195 210.199,121.813 C210.199,124.109 210.491,126.323 211.035,128.443 L127.475,176.688 C122.733,172.213 116.342,169.459 109.304,169.459 C94.677,169.459 82.825,181.316 82.825,195.94 C82.825,208.109 91.039,218.353 102.222,221.449 L102.222,316.934 C91.038,320.029 82.825,330.272 82.825,342.442 Z M236.68,389.505 C232.647,389.505 228.832,390.41 225.409,392.019 C217.659,377.594 211.406,363.377 206.491,349.448 C218.174,346.264 229.654,342.16 240.693,337.179 C269.87,323.991 296.054,305.17 319.052,280.932 C330.679,294.055 340.099,307.949 347.355,321.901 C341.391,326.753 337.579,334.152 337.579,342.442 C337.579,344.726 337.868,346.951 338.412,349.071 L255.231,397.098 C250.453,392.406 243.906,389.505 236.68,389.505 Z M209.336,392.019 L149.71,357.59 C163.833,357.379 178.195,355.771 192.395,352.821 C196.996,365.903 202.643,378.984 209.336,392.019 Z M198.845,210.532 C245.708,221.818 282.267,243.984 309.087,270.411 C275.877,305.352 238.399,325.939 202.113,335.949 C188.451,289.716 189.37,246.975 198.845,210.532 Z M328.564,270.382 C338.713,258.543 348.192,245.573 356.973,231.485 L356.973,310.027 C349.14,296.08 339.556,282.698 328.564,270.382 Z M348.802,217.574 C339.38,233.369 329.244,247.422 318.582,259.874 C309.981,251.349 300.691,243.455 290.857,236.39 C264.847,217.716 235.464,204.452 202.966,196.645 C209.224,177.906 217.737,161.098 227.571,146.686 C230.408,147.734 233.476,148.294 236.679,148.294 C243.905,148.294 250.452,145.397 255.23,140.705 L338.551,188.809 C337.921,191.081 337.577,193.472 337.577,195.938 C337.578,204.881 342.014,212.775 348.802,217.574 Z M189.069,193.689 C172.019,190.492 154.169,188.713 135.542,188.384 L212.435,143.994 C202.816,159.149 194.912,175.986 189.069,193.689 Z M134.942,202.579 C152.686,202.92 169.353,204.657 184.966,207.565 C181.881,219.293 179.688,231.279 178.49,243.336 C175.32,275.198 178.519,307.283 188.013,339.328 C169.877,343.031 152.224,344.167 135.761,343.219 C135.77,342.96 135.782,342.696 135.782,342.443 C135.782,330.273 127.566,320.03 116.386,316.933 L116.386,221.448 C125.46,218.934 132.578,211.716 134.942,202.579 Z" id="Shape" fill="url(#linearGradient-2)"></path>
			</g>
		</g>
	</g>
</svg>
